<?xml version="1.0" standalone="no"?>
<!DOCTYPE svg PUBLIC "-//W3C//DTD SVG 20010904//EN"
 "http://www.w3.org/TR/2001/REC-SVG-20010904/DTD/svg10.dtd">
<svg version="1.0" xmlns="http://www.w3.org/2000/svg"
 width="300.000000pt" height="300.000000pt" viewBox="0 0 300.000000 300.000000"
 preserveAspectRatio="xMidYMid meet">
<metadata>
Created by potrace 1.11, written by Peter Selinger 2001-2013
</metadata>
<g transform="translate(0.000000,300.000000) scale(0.100000,-0.100000)"
fill="#000000" stroke="none">
<path d="M630 2875 c0 -10 10 -15 33 -16 17 0 41 -2 52 -3 179 -23 245 -45
299 -100 26 -26 45 -56 50 -77 7 -36 9 -1925 2 -1969 -3 -14 -7 -52 -10 -86
-15 -152 -64 -267 -146 -341 -33 -30 -134 -79 -185 -88 -22 -5 -47 -10 -55
-12 -24 -5 -183 -4 -210 2 -14 3 -39 8 -57 11 -51 10 -60 29 -21 45 140 56
221 175 211 309 -10 145 -109 232 -260 231 -268 -2 -362 -348 -144 -530 93
-78 248 -123 421 -121 97 1 126 3 177 14 15 4 37 8 48 10 11 2 58 18 103 36
233 90 429 296 518 547 l28 78 4 362 3 362 48 -29 c65 -38 253 -120 491 -215
247 -98 319 -136 396 -208 117 -109 171 -227 172 -377 2 -293 -148 -497 -408
-554 -20 -4 -26 -12 -26 -32 0 -25 2 -25 44 -19 132 20 238 57 347 123 196
118 330 314 371 542 23 127 7 319 -37 435 -44 119 -136 224 -273 313 -89 58
-301 159 -446 212 -221 82 -412 182 -514 271 -56 48 -109 124 -136 194 -31 79
-35 253 -7 330 69 189 227 304 426 310 371 10 629 -226 811 -745 25 -72 42
-106 54 -108 16 -3 17 19 11 340 -7 337 -12 536 -14 551 -1 4 -7 7 -15 7 -13
0 -130 -153 -143 -186 -3 -9 -26 1 -74 32 -109 71 -229 115 -412 151 -18 4
-368 8 -779 10 -668 3 -748 2 -748 -12z"/>
</g>
</svg>
